<svg viewBox="-16 -32 880 192" width="880" height="192" xmlns="http://www.w3.org/2000/svg"><desc>Generated with https://github.com/Platane/snk</desc><style>:root{--cb:#1b1f230a;--cs:purple;--ce:#161b22;--c0:#161b22;--c1:#01311f;--c2:#034525;--c3:#0f6d31;--c4:#00c647}.c{shape-rendering:geometricPrecision;fill:var(--ce);stroke-width:1px;stroke:var(--cb);animation:none 44300ms linear infinite;width:12px;height:12px}@keyframes c0{0.22%{fill:var(--c1)}0.24%,100%{fill:var(--ce)}}.c.c0{fill:var(--c1);animation-name:c0}@keyframes c1{1.8%{fill:var(--c1)}1.82%,100%{fill:var(--ce)}}.c.c1{fill:var(--c1);animation-name:c1}@keyframes c2{2.02%{fill:var(--c1)}2.04%,100%{fill:var(--ce)}}.c.c2{fill:var(--c1);animation-name:c2}@keyframes c3{3.6%{fill:var(--c1)}3.62%,100%{fill:var(--ce)}}.c.c3{fill:var(--c1);animation-name:c3}@keyframes c4{3.83%{fill:var(--c1)}3.85%,100%{fill:var(--ce)}}.c.c4{fill:var(--c1);animation-name:c4}@keyframes c5{4.96%{fill:var(--c1)}4.98%,100%{fill:var(--ce)}}.c.c5{fill:var(--c1);animation-name:c5}@keyframes c6{68.84%{fill:var(--c2)}68.86%,100%{fill:var(--ce)}}.c.c6{fill:var(--c2);animation-name:c6}@keyframes c7{0.44%{fill:var(--c1)}0.46%,100%{fill:var(--ce)}}.c.c7{fill:var(--c1);animation-name:c7}@keyframes c8{1.57%{fill:var(--c1)}1.59%,100%{fill:var(--ce)}}.c.c8{fill:var(--c1);animation-name:c8}@keyframes c9{2.25%{fill:var(--c1)}2.27%,100%{fill:var(--ce)}}.c.c9{fill:var(--c1);animation-name:c9}@keyframes ca{3.38%{fill:var(--c1)}3.4%,100%{fill:var(--ce)}}.c.ca{fill:var(--c1);animation-name:ca}@keyframes cb{4.05%{fill:var(--c1)}4.07%,100%{fill:var(--ce)}}.c.cb{fill:var(--c1);animation-name:cb}@keyframes cc{4.73%{fill:var(--c1)}4.75%,100%{fill:var(--ce)}}.c.cc{fill:var(--c1);animation-name:cc}@keyframes cd{5.86%{fill:var(--c1)}5.88%,100%{fill:var(--ce)}}.c.cd{fill:var(--c1);animation-name:cd}@keyframes ce{0.67%{fill:var(--c1)}0.69%,100%{fill:var(--ce)}}.c.ce{fill:var(--c1);animation-name:ce}@keyframes cf{1.34%{fill:var(--c1)}1.36%,100%{fill:var(--ce)}}.c.cf{fill:var(--c1);animation-name:cf}@keyframes cg{2.47%{fill:var(--c1)}2.49%,100%{fill:var(--ce)}}.c.cg{fill:var(--c1);animation-name:cg}@keyframes ch{3.15%{fill:var(--c1)}3.17%,100%{fill:var(--ce)}}.c.ch{fill:var(--c1);animation-name:ch}@keyframes ci{4.28%{fill:var(--c1)}4.3%,100%{fill:var(--ce)}}.c.ci{fill:var(--c1);animation-name:ci}@keyframes cj{4.5%{fill:var(--c1)}4.52%,100%{fill:var(--ce)}}.c.cj{fill:var(--c1);animation-name:cj}@keyframes ck{6.08%{fill:var(--c1)}6.1%,100%{fill:var(--ce)}}.c.ck{fill:var(--c1);animation-name:ck}@keyframes cl{0.89%{fill:var(--c1)}0.91%,100%{fill:var(--ce)}}.c.cl{fill:var(--c1);animation-name:cl}@keyframes cm{2.7%{fill:var(--c1)}2.72%,100%{fill:var(--ce)}}.c.cm{fill:var(--c1);animation-name:cm}@keyframes cn{2.92%{fill:var(--c1)}2.94%,100%{fill:var(--ce)}}.c.cn{fill:var(--c1);animation-name:cn}@keyframes co{8.79%{fill:var(--c1)}8.81%,100%{fill:var(--ce)}}.c.co{fill:var(--c1);animation-name:co}@keyframes cp{7.44%{fill:var(--c1)}7.46%,100%{fill:var(--ce)}}.c.cp{fill:var(--c1);animation-name:cp}@keyframes cq{7.66%{fill:var(--c1)}7.68%,100%{fill:var(--ce)}}.c.cq{fill:var(--c1);animation-name:cq}@keyframes cr{78.77%{fill:var(--c4)}78.79%,100%{fill:var(--ce)}}.c.cr{fill:var(--c4);animation-name:cr}@keyframes cs{43.78%{fill:var(--c2)}43.8%,100%{fill:var(--ce)}}.c.cs{fill:var(--c2);animation-name:cs}@keyframes ct{45.59%{fill:var(--c2)}45.61%,100%{fill:var(--ce)}}.c.ct{fill:var(--c2);animation-name:ct}@keyframes cu{12.18%{fill:var(--c1)}12.2%,100%{fill:var(--ce)}}.c.cu{fill:var(--c1);animation-name:cu}@keyframes cv{12.41%{fill:var(--c1)}12.43%,100%{fill:var(--ce)}}.c.cv{fill:var(--c1);animation-name:cv}@keyframes cw{14.89%{fill:var(--c1)}14.91%,100%{fill:var(--ce)}}.c.cw{fill:var(--c1);animation-name:cw}@keyframes cx{14.21%{fill:var(--c1)}14.23%,100%{fill:var(--ce)}}.c.cx{fill:var(--c1);animation-name:cx}@keyframes cy{13.08%{fill:var(--c1)}13.1%,100%{fill:var(--ce)}}.c.cy{fill:var(--c1);animation-name:cy}@keyframes cz{13.53%{fill:var(--c1)}13.55%,100%{fill:var(--ce)}}.c.cz{fill:var(--c1);animation-name:cz}@keyframes c10{76.97%{fill:var(--c4)}76.99%,100%{fill:var(--ce)}}.c.c10{fill:var(--c4);animation-name:c10}@keyframes c11{41.98%{fill:var(--c2)}42%,100%{fill:var(--ce)}}.c.c11{fill:var(--c2);animation-name:c11}@keyframes c12{75.84%{fill:var(--c3)}75.86%,100%{fill:var(--ce)}}.c.c12{fill:var(--c3);animation-name:c12}@keyframes c13{16.24%{fill:var(--c1)}16.26%,100%{fill:var(--ce)}}.c.c13{fill:var(--c1);animation-name:c13}@keyframes c14{41.3%{fill:var(--c1)}41.32%,100%{fill:var(--ce)}}.c.c14{fill:var(--c1);animation-name:c14}@keyframes c15{47.85%{fill:var(--c2)}47.87%,100%{fill:var(--ce)}}.c.c15{fill:var(--c2);animation-name:c15}@keyframes c16{17.15%{fill:var(--c1)}17.17%,100%{fill:var(--ce)}}.c.c16{fill:var(--c1);animation-name:c16}@keyframes c17{40.62%{fill:var(--c1)}40.64%,100%{fill:var(--ce)}}.c.c17{fill:var(--c1);animation-name:c17}@keyframes c18{18.27%{fill:var(--c1)}18.29%,100%{fill:var(--ce)}}.c.c18{fill:var(--c1);animation-name:c18}@keyframes c19{17.37%{fill:var(--c1)}17.39%,100%{fill:var(--ce)}}.c.c19{fill:var(--c1);animation-name:c19}@keyframes c1a{17.82%{fill:var(--c1)}17.84%,100%{fill:var(--ce)}}.c.c1a{fill:var(--c1);animation-name:c1a}@keyframes c1b{17.6%{fill:var(--c1)}17.62%,100%{fill:var(--ce)}}.c.c1b{fill:var(--c1);animation-name:c1b}@keyframes c1c{40.17%{fill:var(--c1)}40.19%,100%{fill:var(--ce)}}.c.c1c{fill:var(--c1);animation-name:c1c}@keyframes c1d{48.75%{fill:var(--c2)}48.77%,100%{fill:var(--ce)}}.c.c1d{fill:var(--c2);animation-name:c1d}@keyframes c1e{48.97%{fill:var(--c2)}48.99%,100%{fill:var(--ce)}}.c.c1e{fill:var(--c2);animation-name:c1e}@keyframes c1f{19.4%{fill:var(--c1)}19.42%,100%{fill:var(--ce)}}.c.c1f{fill:var(--c1);animation-name:c1f}@keyframes c1g{19.85%{fill:var(--c1)}19.87%,100%{fill:var(--ce)}}.c.c1g{fill:var(--c1);animation-name:c1g}@keyframes c1h{19.63%{fill:var(--c1)}19.65%,100%{fill:var(--ce)}}.c.c1h{fill:var(--c1);animation-name:c1h}@keyframes c1i{22.79%{fill:var(--c1)}22.81%,100%{fill:var(--ce)}}.c.c1i{fill:var(--c1);animation-name:c1i}@keyframes c1j{20.31%{fill:var(--c1)}20.33%,100%{fill:var(--ce)}}.c.c1j{fill:var(--c1);animation-name:c1j}@keyframes c1k{21.89%{fill:var(--c1)}21.91%,100%{fill:var(--ce)}}.c.c1k{fill:var(--c1);animation-name:c1k}@keyframes c1l{20.53%{fill:var(--c1)}20.55%,100%{fill:var(--ce)}}.c.c1l{fill:var(--c1);animation-name:c1l}@keyframes c1m{20.76%{fill:var(--c1)}20.78%,100%{fill:var(--ce)}}.c.c1m{fill:var(--c1);animation-name:c1m}@keyframes c1n{20.98%{fill:var(--c1)}21%,100%{fill:var(--ce)}}.c.c1n{fill:var(--c1);animation-name:c1n}@keyframes c1o{21.21%{fill:var(--c1)}21.23%,100%{fill:var(--ce)}}.c.c1o{fill:var(--c1);animation-name:c1o}@keyframes c1p{21.43%{fill:var(--c1)}21.45%,100%{fill:var(--ce)}}.c.c1p{fill:var(--c1);animation-name:c1p}@keyframes c1q{24.82%{fill:var(--c1)}24.84%,100%{fill:var(--ce)}}.c.c1q{fill:var(--c1);animation-name:c1q}@keyframes c1r{23.47%{fill:var(--c1)}23.49%,100%{fill:var(--ce)}}.c.c1r{fill:var(--c1);animation-name:c1r}@keyframes c1s{23.69%{fill:var(--c1)}23.71%,100%{fill:var(--ce)}}.c.c1s{fill:var(--c1);animation-name:c1s}@keyframes c1t{23.92%{fill:var(--c1)}23.94%,100%{fill:var(--ce)}}.c.c1t{fill:var(--c1);animation-name:c1t}@keyframes c1u{51.91%{fill:var(--c2)}51.93%,100%{fill:var(--ce)}}.c.c1u{fill:var(--c2);animation-name:c1u}@keyframes c1v{27.08%{fill:var(--c1)}27.1%,100%{fill:var(--ce)}}.c.c1v{fill:var(--c1);animation-name:c1v}@keyframes c1w{29.79%{fill:var(--c1)}29.81%,100%{fill:var(--ce)}}.c.c1w{fill:var(--c1);animation-name:c1w}@keyframes c1x{28.88%{fill:var(--c1)}28.9%,100%{fill:var(--ce)}}.c.c1x{fill:var(--c1);animation-name:c1x}@keyframes c1y{29.34%{fill:var(--c1)}29.36%,100%{fill:var(--ce)}}.c.c1y{fill:var(--c1);animation-name:c1y}@keyframes c1z{27.76%{fill:var(--c1)}27.78%,100%{fill:var(--ce)}}.c.c1z{fill:var(--c1);animation-name:c1z}@keyframes c20{27.98%{fill:var(--c1)}28%,100%{fill:var(--ce)}}.c.c20{fill:var(--c1);animation-name:c20}@keyframes c21{34.98%{fill:var(--c1)}35%,100%{fill:var(--ce)}}.c.c21{fill:var(--c1);animation-name:c21}@keyframes c22{28.43%{fill:var(--c1)}28.45%,100%{fill:var(--ce)}}.c.c22{fill:var(--c1);animation-name:c22}@keyframes c23{32.95%{fill:var(--c1)}32.97%,100%{fill:var(--ce)}}.c.c23{fill:var(--c1);animation-name:c23}@keyframes c24{32.72%{fill:var(--c1)}32.74%,100%{fill:var(--ce)}}.c.c24{fill:var(--c1);animation-name:c24}@keyframes c25{86.22%{fill:var(--c4)}86.24%,100%{fill:var(--ce)}}.c.c25{fill:var(--c4);animation-name:c25}@keyframes c26{86.45%{fill:var(--c4)}86.47%,100%{fill:var(--ce)}}.c.c26{fill:var(--c4);animation-name:c26}@keyframes c27{88.03%{fill:var(--c4)}88.05%,100%{fill:var(--ce)}}.c.c27{fill:var(--c4);animation-name:c27}@keyframes c28{33.17%{fill:var(--c1)}33.19%,100%{fill:var(--ce)}}.c.c28{fill:var(--c1);animation-name:c28}@keyframes c29{54.17%{fill:var(--c2)}54.19%,100%{fill:var(--ce)}}.c.c29{fill:var(--c2);animation-name:c29}@keyframes c2a{54.39%{fill:var(--c2)}54.41%,100%{fill:var(--ce)}}.c.c2a{fill:var(--c2);animation-name:c2a}@keyframes c2b{31.82%{fill:var(--c1)}31.84%,100%{fill:var(--ce)}}.c.c2b{fill:var(--c1);animation-name:c2b}@keyframes c2c{31.59%{fill:var(--c1)}31.61%,100%{fill:var(--ce)}}.c.c2c{fill:var(--c1);animation-name:c2c}@keyframes c2d{55.29%{fill:var(--c2)}55.31%,100%{fill:var(--ce)}}.c.c2d{fill:var(--c2);animation-name:c2d}.u{transform-origin:0 0;transform:scale(0,1);animation:none linear 44300ms infinite}@keyframes u0{0.22%{transform:scale(0.000,1)}0.24%,0.44%{transform:scale(0.014,1)}0.46%,0.67%{transform:scale(0.029,1)}0.69%,0.89%{transform:scale(0.043,1)}0.91%,1.34%{transform:scale(0.058,1)}1.36%,1.57%{transform:scale(0.072,1)}1.59%,1.8%{transform:scale(0.087,1)}1.82%,2.02%{transform:scale(0.101,1)}2.04%,2.25%{transform:scale(0.116,1)}2.27%,2.47%{transform:scale(0.130,1)}2.49%,2.7%{transform:scale(0.145,1)}2.72%,2.92%{transform:scale(0.159,1)}2.94%,3.15%{transform:scale(0.174,1)}3.17%,3.38%{transform:scale(0.188,1)}3.4%,3.6%{transform:scale(0.203,1)}3.62%,3.83%{transform:scale(0.217,1)}3.85%,4.05%{transform:scale(0.232,1)}4.07%,4.28%{transform:scale(0.246,1)}4.3%,4.5%{transform:scale(0.261,1)}4.52%,4.73%{transform:scale(0.275,1)}4.75%,4.96%{transform:scale(0.290,1)}4.98%,5.86%{transform:scale(0.304,1)}5.88%,6.08%{transform:scale(0.319,1)}6.1%,7.44%{transform:scale(0.333,1)}7.46%,7.66%{transform:scale(0.348,1)}7.68%,8.79%{transform:scale(0.362,1)}8.81%,12.18%{transform:scale(0.377,1)}12.2%,12.41%{transform:scale(0.391,1)}12.43%,13.08%{transform:scale(0.406,1)}13.1%,13.53%{transform:scale(0.420,1)}13.55%,14.21%{transform:scale(0.435,1)}14.23%,14.89%{transform:scale(0.449,1)}14.91%,16.24%{transform:scale(0.464,1)}16.26%,17.15%{transform:scale(0.478,1)}17.17%,17.37%{transform:scale(0.493,1)}17.39%,17.6%{transform:scale(0.507,1)}17.62%,17.82%{transform:scale(0.522,1)}17.84%,18.27%{transform:scale(0.536,1)}18.29%,19.4%{transform:scale(0.551,1)}19.42%,19.63%{transform:scale(0.565,1)}19.65%,19.85%{transform:scale(0.580,1)}19.87%,20.31%{transform:scale(0.594,1)}20.33%,20.53%{transform:scale(0.609,1)}20.55%,20.76%{transform:scale(0.623,1)}20.78%,20.98%{transform:scale(0.638,1)}21%,21.21%{transform:scale(0.652,1)}21.23%,21.43%{transform:scale(0.667,1)}21.45%,21.89%{transform:scale(0.681,1)}21.91%,22.79%{transform:scale(0.696,1)}22.81%,23.47%{transform:scale(0.710,1)}23.49%,23.69%{transform:scale(0.725,1)}23.71%,23.92%{transform:scale(0.739,1)}23.94%,24.82%{transform:scale(0.754,1)}24.84%,27.08%{transform:scale(0.768,1)}27.1%,27.76%{transform:scale(0.783,1)}27.78%,27.98%{transform:scale(0.797,1)}28%,28.43%{transform:scale(0.812,1)}28.45%,28.88%{transform:scale(0.826,1)}28.9%,29.34%{transform:scale(0.841,1)}29.36%,29.79%{transform:scale(0.855,1)}29.81%,31.59%{transform:scale(0.870,1)}31.61%,31.82%{transform:scale(0.884,1)}31.84%,32.72%{transform:scale(0.899,1)}32.74%,32.95%{transform:scale(0.913,1)}32.97%,33.17%{transform:scale(0.928,1)}33.19%,34.98%{transform:scale(0.942,1)}35%,40.17%{transform:scale(0.957,1)}40.19%,40.62%{transform:scale(0.971,1)}40.64%,41.3%{transform:scale(0.986,1)}41.32%,100%{transform:scale(1.000,1)}}.u.u0{fill:var(--c1);animation-name:u0;transform-origin:0.0px 0}@keyframes u1{41.98%{transform:scale(0.000,1)}42%,43.78%{transform:scale(0.091,1)}43.8%,45.59%{transform:scale(0.182,1)}45.61%,47.85%{transform:scale(0.273,1)}47.87%,48.75%{transform:scale(0.364,1)}48.77%,48.97%{transform:scale(0.455,1)}48.99%,51.91%{transform:scale(0.545,1)}51.93%,54.17%{transform:scale(0.636,1)}54.19%,54.39%{transform:scale(0.727,1)}54.41%,55.29%{transform:scale(0.818,1)}55.31%,68.84%{transform:scale(0.909,1)}68.86%,100%{transform:scale(1.000,1)}}.u.u1{fill:var(--c2);animation-name:u1;transform-origin:680.4px 0}@keyframes u2{75.84%{transform:scale(0.000,1)}75.86%,100%{transform:scale(1.000,1)}}.u.u2{fill:var(--c3);animation-name:u2;transform-origin:788.8px 0}@keyframes u3{76.97%{transform:scale(0.000,1)}76.99%,78.77%{transform:scale(0.200,1)}78.79%,86.22%{transform:scale(0.400,1)}86.24%,86.45%{transform:scale(0.600,1)}86.47%,88.03%{transform:scale(0.800,1)}88.05%,100%{transform:scale(1.000,1)}}.u.u3{fill:var(--c4);animation-name:u3;transform-origin:798.7px 0}.s{shape-rendering:geometricPrecision;fill:var(--cs);animation:none linear 44300ms infinite}@keyframes s0{0%,99.77%{transform:translate(0px,-16px)}0.23%{transform:translate(0px,0px)}0.9%{transform:translate(48px,0px)}1.13%{transform:translate(48px,16px)}1.81%,67.72%{transform:translate(0px,16px)}2.03%{transform:translate(0px,32px)}2.71%{transform:translate(48px,32px)}2.93%{transform:translate(48px,48px)}3.61%{transform:translate(0px,48px)}3.84%,5.19%{transform:translate(0px,64px)}4.29%{transform:translate(32px,64px)}4.51%{transform:translate(32px,80px)}4.97%{transform:translate(0px,80px)}5.42%{transform:translate(16px,64px)}5.87%{transform:translate(16px,96px)}7.67%{transform:translate(144px,96px)}8.35%{transform:translate(144px,48px)}8.8%{transform:translate(112px,48px)}9.03%{transform:translate(112px,64px)}11.96%{transform:translate(320px,64px)}12.42%{transform:translate(320px,96px)}12.87%{transform:translate(352px,96px)}13.09%{transform:translate(352px,80px)}13.32%{transform:translate(368px,80px)}14%{transform:translate(368px,32px)}14.22%{transform:translate(352px,32px)}14.67%{transform:translate(352px,0px)}14.9%{transform:translate(336px,0px)}15.12%{transform:translate(336px,16px)}16.03%{transform:translate(400px,16px)}16.25%{transform:translate(400px,32px)}16.93%{transform:translate(448px,32px)}17.16%{transform:translate(448px,48px)}17.61%{transform:translate(480px,48px)}18.06%{transform:translate(480px,16px)}18.28%{transform:translate(464px,16px)}18.51%{transform:translate(464px,32px)}18.74%{transform:translate(480px,32px)}19.19%,39.95%{transform:translate(480px,64px)}19.64%,39.5%{transform:translate(512px,64px)}19.86%{transform:translate(512px,48px)}20.54%{transform:translate(560px,48px)}20.77%{transform:translate(560px,64px)}20.99%{transform:translate(576px,64px)}21.44%{transform:translate(576px,96px)}21.9%{transform:translate(544px,96px)}22.8%{transform:translate(544px,32px)}23.48%{transform:translate(592px,32px)}23.7%{transform:translate(592px,48px)}23.93%{transform:translate(608px,48px)}24.6%{transform:translate(608px,0px)}24.83%{transform:translate(592px,0px)}25.06%{transform:translate(592px,16px)}25.96%{transform:translate(656px,16px)}26.19%{transform:translate(656px,32px)}27.77%{transform:translate(768px,32px)}27.99%{transform:translate(768px,48px)}28.22%{transform:translate(784px,48px)}28.44%{transform:translate(784px,64px)}28.89%{transform:translate(752px,64px)}29.35%{transform:translate(752px,96px)}29.8%{transform:translate(720px,96px)}30.02%{transform:translate(720px,112px)}31.38%{transform:translate(816px,112px)}32.05%{transform:translate(816px,64px)}32.28%{transform:translate(800px,64px)}32.96%{transform:translate(800px,16px)}33.63%,55.76%{transform:translate(848px,16px)}33.86%{transform:translate(848px,32px)}34.09%{transform:translate(832px,32px)}34.31%{transform:translate(832px,16px)}36.34%{transform:translate(688px,16px)}36.57%{transform:translate(688px,32px)}39.05%{transform:translate(512px,32px)}40.18%{transform:translate(480px,80px)}41.08%{transform:translate(416px,80px)}41.31%{transform:translate(416px,96px)}41.53%,74.49%{transform:translate(400px,96px)}41.76%{transform:translate(400px,80px)}43.34%{transform:translate(288px,80px)}43.57%{transform:translate(288px,96px)}44.02%{transform:translate(256px,96px)}44.47%{transform:translate(256px,64px)}44.92%{transform:translate(288px,64px)}45.6%{transform:translate(288px,16px)}48.53%{transform:translate(496px,16px)}48.98%{transform:translate(496px,48px)}51.47%{transform:translate(672px,48px)}51.92%{transform:translate(672px,16px)}53.95%{transform:translate(816px,16px)}54.4%{transform:translate(816px,48px)}54.63%{transform:translate(832px,48px)}55.3%{transform:translate(832px,0px)}55.53%{transform:translate(848px,0px)}68.85%{transform:translate(0px,96px)}75.85%{transform:translate(400px,0px)}76.07%{transform:translate(384px,0px)}76.98%{transform:translate(384px,64px)}78.56%{transform:translate(272px,64px)}78.78%{transform:translate(272px,80px)}86.23%{transform:translate(800px,80px)}86.46%{transform:translate(800px,96px)}86.68%{transform:translate(816px,96px)}88.04%{transform:translate(816px,0px)}98.42%{transform:translate(80px,0px)}98.65%{transform:translate(80px,-16px)}}.s.s0{transform:translate(0px,-16px);animation-name:s0}@keyframes s1{0%,99.77%{transform:translate(16px,-16px)}0.23%{transform:translate(0px,-16px)}0.45%{transform:translate(0px,0px)}1.13%{transform:translate(48px,0px)}1.35%{transform:translate(48px,16px)}2.03%,67.95%{transform:translate(0px,16px)}2.26%{transform:translate(0px,32px)}2.93%{transform:translate(48px,32px)}3.16%{transform:translate(48px,48px)}3.84%{transform:translate(0px,48px)}4.06%,5.42%{transform:translate(0px,64px)}4.51%{transform:translate(32px,64px)}4.74%{transform:translate(32px,80px)}5.19%{transform:translate(0px,80px)}5.64%{transform:translate(16px,64px)}6.09%{transform:translate(16px,96px)}7.9%{transform:translate(144px,96px)}8.58%{transform:translate(144px,48px)}9.03%{transform:translate(112px,48px)}9.26%{transform:translate(112px,64px)}12.19%{transform:translate(320px,64px)}12.64%{transform:translate(320px,96px)}13.09%{transform:translate(352px,96px)}13.32%{transform:translate(352px,80px)}13.54%{transform:translate(368px,80px)}14.22%{transform:translate(368px,32px)}14.45%{transform:translate(352px,32px)}14.9%{transform:translate(352px,0px)}15.12%{transform:translate(336px,0px)}15.35%{transform:translate(336px,16px)}16.25%{transform:translate(400px,16px)}16.48%{transform:translate(400px,32px)}17.16%{transform:translate(448px,32px)}17.38%{transform:translate(448px,48px)}17.83%{transform:translate(480px,48px)}18.28%{transform:translate(480px,16px)}18.51%{transform:translate(464px,16px)}18.74%{transform:translate(464px,32px)}18.96%{transform:translate(480px,32px)}19.41%,40.18%{transform:translate(480px,64px)}19.86%,39.73%{transform:translate(512px,64px)}20.09%{transform:translate(512px,48px)}20.77%{transform:translate(560px,48px)}20.99%{transform:translate(560px,64px)}21.22%{transform:translate(576px,64px)}21.67%{transform:translate(576px,96px)}22.12%{transform:translate(544px,96px)}23.02%{transform:translate(544px,32px)}23.7%{transform:translate(592px,32px)}23.93%{transform:translate(592px,48px)}24.15%{transform:translate(608px,48px)}24.83%{transform:translate(608px,0px)}25.06%{transform:translate(592px,0px)}25.28%{transform:translate(592px,16px)}26.19%{transform:translate(656px,16px)}26.41%{transform:translate(656px,32px)}27.99%{transform:translate(768px,32px)}28.22%{transform:translate(768px,48px)}28.44%{transform:translate(784px,48px)}28.67%{transform:translate(784px,64px)}29.12%{transform:translate(752px,64px)}29.57%{transform:translate(752px,96px)}30.02%{transform:translate(720px,96px)}30.25%{transform:translate(720px,112px)}31.6%{transform:translate(816px,112px)}32.28%{transform:translate(816px,64px)}32.51%{transform:translate(800px,64px)}33.18%{transform:translate(800px,16px)}33.86%,55.98%{transform:translate(848px,16px)}34.09%{transform:translate(848px,32px)}34.31%{transform:translate(832px,32px)}34.54%{transform:translate(832px,16px)}36.57%{transform:translate(688px,16px)}36.79%{transform:translate(688px,32px)}39.28%{transform:translate(512px,32px)}40.41%{transform:translate(480px,80px)}41.31%{transform:translate(416px,80px)}41.53%{transform:translate(416px,96px)}41.76%,74.72%{transform:translate(400px,96px)}41.99%{transform:translate(400px,80px)}43.57%{transform:translate(288px,80px)}43.79%{transform:translate(288px,96px)}44.24%{transform:translate(256px,96px)}44.7%{transform:translate(256px,64px)}45.15%{transform:translate(288px,64px)}45.82%{transform:translate(288px,16px)}48.76%{transform:translate(496px,16px)}49.21%{transform:translate(496px,48px)}51.69%{transform:translate(672px,48px)}52.14%{transform:translate(672px,16px)}54.18%{transform:translate(816px,16px)}54.63%{transform:translate(816px,48px)}54.85%{transform:translate(832px,48px)}55.53%{transform:translate(832px,0px)}55.76%{transform:translate(848px,0px)}69.07%{transform:translate(0px,96px)}76.07%{transform:translate(400px,0px)}76.3%{transform:translate(384px,0px)}77.2%{transform:translate(384px,64px)}78.78%{transform:translate(272px,64px)}79.01%{transform:translate(272px,80px)}86.46%{transform:translate(800px,80px)}86.68%{transform:translate(800px,96px)}86.91%{transform:translate(816px,96px)}88.26%{transform:translate(816px,0px)}98.65%{transform:translate(80px,0px)}98.87%{transform:translate(80px,-16px)}}.s.s1{transform:translate(16px,-16px);animation-name:s1}@keyframes s2{0%,99.77%{transform:translate(32px,-16px)}0.45%{transform:translate(0px,-16px)}0.68%{transform:translate(0px,0px)}1.35%{transform:translate(48px,0px)}1.58%{transform:translate(48px,16px)}2.26%,68.17%{transform:translate(0px,16px)}2.48%{transform:translate(0px,32px)}3.16%{transform:translate(48px,32px)}3.39%{transform:translate(48px,48px)}4.06%{transform:translate(0px,48px)}4.29%,5.64%{transform:translate(0px,64px)}4.74%{transform:translate(32px,64px)}4.97%{transform:translate(32px,80px)}5.42%{transform:translate(0px,80px)}5.87%{transform:translate(16px,64px)}6.32%{transform:translate(16px,96px)}8.13%{transform:translate(144px,96px)}8.8%{transform:translate(144px,48px)}9.26%{transform:translate(112px,48px)}9.48%{transform:translate(112px,64px)}12.42%{transform:translate(320px,64px)}12.87%{transform:translate(320px,96px)}13.32%{transform:translate(352px,96px)}13.54%{transform:translate(352px,80px)}13.77%{transform:translate(368px,80px)}14.45%{transform:translate(368px,32px)}14.67%{transform:translate(352px,32px)}15.12%{transform:translate(352px,0px)}15.35%{transform:translate(336px,0px)}15.58%{transform:translate(336px,16px)}16.48%{transform:translate(400px,16px)}16.7%{transform:translate(400px,32px)}17.38%{transform:translate(448px,32px)}17.61%{transform:translate(448px,48px)}18.06%{transform:translate(480px,48px)}18.51%{transform:translate(480px,16px)}18.74%{transform:translate(464px,16px)}18.96%{transform:translate(464px,32px)}19.19%{transform:translate(480px,32px)}19.64%,40.41%{transform:translate(480px,64px)}20.09%,39.95%{transform:translate(512px,64px)}20.32%{transform:translate(512px,48px)}20.99%{transform:translate(560px,48px)}21.22%{transform:translate(560px,64px)}21.44%{transform:translate(576px,64px)}21.9%{transform:translate(576px,96px)}22.35%{transform:translate(544px,96px)}23.25%{transform:translate(544px,32px)}23.93%{transform:translate(592px,32px)}24.15%{transform:translate(592px,48px)}24.38%{transform:translate(608px,48px)}25.06%{transform:translate(608px,0px)}25.28%{transform:translate(592px,0px)}25.51%{transform:translate(592px,16px)}26.41%{transform:translate(656px,16px)}26.64%{transform:translate(656px,32px)}28.22%{transform:translate(768px,32px)}28.44%{transform:translate(768px,48px)}28.67%{transform:translate(784px,48px)}28.89%{transform:translate(784px,64px)}29.35%{transform:translate(752px,64px)}29.8%{transform:translate(752px,96px)}30.25%{transform:translate(720px,96px)}30.47%{transform:translate(720px,112px)}31.83%{transform:translate(816px,112px)}32.51%{transform:translate(816px,64px)}32.73%{transform:translate(800px,64px)}33.41%{transform:translate(800px,16px)}34.09%,56.21%{transform:translate(848px,16px)}34.31%{transform:translate(848px,32px)}34.54%{transform:translate(832px,32px)}34.76%{transform:translate(832px,16px)}36.79%{transform:translate(688px,16px)}37.02%{transform:translate(688px,32px)}39.5%{transform:translate(512px,32px)}40.63%{transform:translate(480px,80px)}41.53%{transform:translate(416px,80px)}41.76%{transform:translate(416px,96px)}41.99%,74.94%{transform:translate(400px,96px)}42.21%{transform:translate(400px,80px)}43.79%{transform:translate(288px,80px)}44.02%{transform:translate(288px,96px)}44.47%{transform:translate(256px,96px)}44.92%{transform:translate(256px,64px)}45.37%{transform:translate(288px,64px)}46.05%{transform:translate(288px,16px)}48.98%{transform:translate(496px,16px)}49.44%{transform:translate(496px,48px)}51.92%{transform:translate(672px,48px)}52.37%{transform:translate(672px,16px)}54.4%{transform:translate(816px,16px)}54.85%{transform:translate(816px,48px)}55.08%{transform:translate(832px,48px)}55.76%{transform:translate(832px,0px)}55.98%{transform:translate(848px,0px)}69.3%{transform:translate(0px,96px)}76.3%{transform:translate(400px,0px)}76.52%{transform:translate(384px,0px)}77.43%{transform:translate(384px,64px)}79.01%{transform:translate(272px,64px)}79.23%{transform:translate(272px,80px)}86.68%{transform:translate(800px,80px)}86.91%{transform:translate(800px,96px)}87.13%{transform:translate(816px,96px)}88.49%{transform:translate(816px,0px)}98.87%{transform:translate(80px,0px)}99.1%{transform:translate(80px,-16px)}}.s.s2{transform:translate(32px,-16px);animation-name:s2}@keyframes s3{0%,99.77%{transform:translate(48px,-16px)}0.68%{transform:translate(0px,-16px)}0.9%{transform:translate(0px,0px)}1.58%{transform:translate(48px,0px)}1.81%{transform:translate(48px,16px)}2.48%,68.4%{transform:translate(0px,16px)}2.71%{transform:translate(0px,32px)}3.39%{transform:translate(48px,32px)}3.61%{transform:translate(48px,48px)}4.29%{transform:translate(0px,48px)}4.51%,5.87%{transform:translate(0px,64px)}4.97%{transform:translate(32px,64px)}5.19%{transform:translate(32px,80px)}5.64%{transform:translate(0px,80px)}6.09%{transform:translate(16px,64px)}6.55%{transform:translate(16px,96px)}8.35%{transform:translate(144px,96px)}9.03%{transform:translate(144px,48px)}9.48%{transform:translate(112px,48px)}9.71%{transform:translate(112px,64px)}12.64%{transform:translate(320px,64px)}13.09%{transform:translate(320px,96px)}13.54%{transform:translate(352px,96px)}13.77%{transform:translate(352px,80px)}14%{transform:translate(368px,80px)}14.67%{transform:translate(368px,32px)}14.9%{transform:translate(352px,32px)}15.35%{transform:translate(352px,0px)}15.58%{transform:translate(336px,0px)}15.8%{transform:translate(336px,16px)}16.7%{transform:translate(400px,16px)}16.93%{transform:translate(400px,32px)}17.61%{transform:translate(448px,32px)}17.83%{transform:translate(448px,48px)}18.28%{transform:translate(480px,48px)}18.74%{transform:translate(480px,16px)}18.96%{transform:translate(464px,16px)}19.19%{transform:translate(464px,32px)}19.41%{transform:translate(480px,32px)}19.86%,40.63%{transform:translate(480px,64px)}20.32%,40.18%{transform:translate(512px,64px)}20.54%{transform:translate(512px,48px)}21.22%{transform:translate(560px,48px)}21.44%{transform:translate(560px,64px)}21.67%{transform:translate(576px,64px)}22.12%{transform:translate(576px,96px)}22.57%{transform:translate(544px,96px)}23.48%{transform:translate(544px,32px)}24.15%{transform:translate(592px,32px)}24.38%{transform:translate(592px,48px)}24.6%{transform:translate(608px,48px)}25.28%{transform:translate(608px,0px)}25.51%{transform:translate(592px,0px)}25.73%{transform:translate(592px,16px)}26.64%{transform:translate(656px,16px)}26.86%{transform:translate(656px,32px)}28.44%{transform:translate(768px,32px)}28.67%{transform:translate(768px,48px)}28.89%{transform:translate(784px,48px)}29.12%{transform:translate(784px,64px)}29.57%{transform:translate(752px,64px)}30.02%{transform:translate(752px,96px)}30.47%{transform:translate(720px,96px)}30.7%{transform:translate(720px,112px)}32.05%{transform:translate(816px,112px)}32.73%{transform:translate(816px,64px)}32.96%{transform:translate(800px,64px)}33.63%{transform:translate(800px,16px)}34.31%,56.43%{transform:translate(848px,16px)}34.54%{transform:translate(848px,32px)}34.76%{transform:translate(832px,32px)}34.99%{transform:translate(832px,16px)}37.02%{transform:translate(688px,16px)}37.25%{transform:translate(688px,32px)}39.73%{transform:translate(512px,32px)}40.86%{transform:translate(480px,80px)}41.76%{transform:translate(416px,80px)}41.99%{transform:translate(416px,96px)}42.21%,75.17%{transform:translate(400px,96px)}42.44%{transform:translate(400px,80px)}44.02%{transform:translate(288px,80px)}44.24%{transform:translate(288px,96px)}44.7%{transform:translate(256px,96px)}45.15%{transform:translate(256px,64px)}45.6%{transform:translate(288px,64px)}46.28%{transform:translate(288px,16px)}49.21%{transform:translate(496px,16px)}49.66%{transform:translate(496px,48px)}52.14%{transform:translate(672px,48px)}52.6%{transform:translate(672px,16px)}54.63%{transform:translate(816px,16px)}55.08%{transform:translate(816px,48px)}55.3%{transform:translate(832px,48px)}55.98%{transform:translate(832px,0px)}56.21%{transform:translate(848px,0px)}69.53%{transform:translate(0px,96px)}76.52%{transform:translate(400px,0px)}76.75%{transform:translate(384px,0px)}77.65%{transform:translate(384px,64px)}79.23%{transform:translate(272px,64px)}79.46%{transform:translate(272px,80px)}86.91%{transform:translate(800px,80px)}87.13%{transform:translate(800px,96px)}87.36%{transform:translate(816px,96px)}88.71%{transform:translate(816px,0px)}99.1%{transform:translate(80px,0px)}99.32%{transform:translate(80px,-16px)}}.s.s3{transform:translate(48px,-16px);animation-name:s3}</style><rect class="c c0" x="2" y="2" rx="2" ry="2"/><rect class="c c1" x="2" y="18" rx="2" ry="2"/><rect class="c c2" x="2" y="34" rx="2" ry="2"/><rect class="c c3" x="2" y="50" rx="2" ry="2"/><rect class="c c4" x="2" y="66" rx="2" ry="2"/><rect class="c c5" x="2" y="82" rx="2" ry="2"/><rect class="c c6" x="2" y="98" rx="2" ry="2"/><rect class="c c7" x="18" y="2" rx="2" ry="2"/><rect class="c c8" x="18" y="18" rx="2" ry="2"/><rect class="c c9" x="18" y="34" rx="2" ry="2"/><rect class="c ca" x="18" y="50" rx="2" ry="2"/><rect class="c cb" x="18" y="66" rx="2" ry="2"/><rect class="c cc" x="18" y="82" rx="2" ry="2"/><rect class="c cd" x="18" y="98" rx="2" ry="2"/><rect class="c ce" x="34" y="2" rx="2" ry="2"/><rect class="c cf" x="34" y="18" rx="2" ry="2"/><rect class="c cg" x="34" y="34" rx="2" ry="2"/><rect class="c ch" x="34" y="50" rx="2" ry="2"/><rect class="c ci" x="34" y="66" rx="2" ry="2"/><rect class="c cj" x="34" y="82" rx="2" ry="2"/><rect class="c ck" x="34" y="98" rx="2" ry="2"/><rect class="c cl" x="50" y="2" rx="2" ry="2"/><rect class="c" x="50" y="18" rx="2" ry="2"/><rect class="c cm" x="50" y="34" rx="2" ry="2"/><rect class="c cn" x="50" y="50" rx="2" ry="2"/><rect class="c" x="50" y="66" rx="2" ry="2"/><rect class="c" x="50" y="82" rx="2" ry="2"/><rect class="c" x="50" y="98" rx="2" ry="2"/><rect class="c" x="66" y="2" rx="2" ry="2"/><rect class="c" x="66" y="18" rx="2" ry="2"/><rect class="c" x="66" y="34" rx="2" ry="2"/><rect class="c" x="66" y="50" rx="2" ry="2"/><rect class="c" x="66" y="66" rx="2" ry="2"/><rect class="c" x="66" y="82" rx="2" ry="2"/><rect class="c" x="66" y="98" rx="2" ry="2"/><rect class="c" x="82" y="2" rx="2" ry="2"/><rect class="c" x="82" y="18" rx="2" ry="2"/><rect class="c" x="82" y="34" rx="2" ry="2"/><rect class="c" x="82" y="50" rx="2" ry="2"/><rect class="c" x="82" y="66" rx="2" ry="2"/><rect class="c" x="82" y="82" rx="2" ry="2"/><rect class="c" x="82" y="98" rx="2" ry="2"/><rect class="c" x="98" y="2" rx="2" ry="2"/><rect class="c" x="98" y="18" rx="2" ry="2"/><rect class="c" x="98" y="34" rx="2" ry="2"/><rect class="c" x="98" y="50" rx="2" ry="2"/><rect class="c" x="98" y="66" rx="2" ry="2"/><rect class="c" x="98" y="82" rx="2" ry="2"/><rect class="c" x="98" y="98" rx="2" ry="2"/><rect class="c" x="114" y="2" rx="2" ry="2"/><rect class="c" x="114" y="18" rx="2" ry="2"/><rect class="c" x="114" y="34" rx="2" ry="2"/><rect class="c co" x="114" y="50" rx="2" ry="2"/><rect class="c" x="114" y="66" rx="2" ry="2"/><rect class="c" x="114" y="82" rx="2" ry="2"/><rect class="c" x="114" y="98" rx="2" ry="2"/><rect class="c" x="130" y="2" rx="2" ry="2"/><rect class="c" x="130" y="18" rx="2" ry="2"/><rect class="c" x="130" y="34" rx="2" ry="2"/><rect class="c" x="130" y="50" rx="2" ry="2"/><rect class="c" x="130" y="66" rx="2" ry="2"/><rect class="c" x="130" y="82" rx="2" ry="2"/><rect class="c cp" x="130" y="98" rx="2" ry="2"/><rect class="c" x="146" y="2" rx="2" ry="2"/><rect class="c" x="146" y="18" rx="2" ry="2"/><rect class="c" x="146" y="34" rx="2" ry="2"/><rect class="c" x="146" y="50" rx="2" ry="2"/><rect class="c" x="146" y="66" rx="2" ry="2"/><rect class="c" x="146" y="82" rx="2" ry="2"/><rect class="c cq" x="146" y="98" rx="2" ry="2"/><rect class="c" x="162" y="2" rx="2" ry="2"/><rect class="c" x="162" y="18" rx="2" ry="2"/><rect class="c" x="162" y="34" rx="2" ry="2"/><rect class="c" x="162" y="50" rx="2" ry="2"/><rect class="c" x="162" y="66" rx="2" ry="2"/><rect class="c" x="162" y="82" rx="2" ry="2"/><rect class="c" x="162" y="98" rx="2" ry="2"/><rect class="c" x="178" y="2" rx="2" ry="2"/><rect class="c" x="178" y="18" rx="2" ry="2"/><rect class="c" x="178" y="34" rx="2" ry="2"/><rect class="c" x="178" y="50" rx="2" ry="2"/><rect class="c" x="178" y="66" rx="2" ry="2"/><rect class="c" x="178" y="82" rx="2" ry="2"/><rect class="c" x="178" y="98" rx="2" ry="2"/><rect class="c" x="194" y="2" rx="2" ry="2"/><rect class="c" x="194" y="18" rx="2" ry="2"/><rect class="c" x="194" y="34" rx="2" ry="2"/><rect class="c" x="194" y="50" rx="2" ry="2"/><rect class="c" x="194" y="66" rx="2" ry="2"/><rect class="c" x="194" y="82" rx="2" ry="2"/><rect class="c" x="194" y="98" rx="2" ry="2"/><rect class="c" x="210" y="2" rx="2" ry="2"/><rect class="c" x="210" y="18" rx="2" ry="2"/><rect class="c" x="210" y="34" rx="2" ry="2"/><rect class="c" x="210" y="50" rx="2" ry="2"/><rect class="c" x="210" y="66" rx="2" ry="2"/><rect class="c" x="210" y="82" rx="2" ry="2"/><rect class="c" x="210" y="98" rx="2" ry="2"/><rect class="c" x="226" y="2" rx="2" ry="2"/><rect class="c" x="226" y="18" rx="2" ry="2"/><rect class="c" x="226" y="34" rx="2" ry="2"/><rect class="c" x="226" y="50" rx="2" ry="2"/><rect class="c" x="226" y="66" rx="2" ry="2"/><rect class="c" x="226" y="82" rx="2" ry="2"/><rect class="c" x="226" y="98" rx="2" ry="2"/><rect class="c" x="242" y="2" rx="2" ry="2"/><rect class="c" x="242" y="18" rx="2" ry="2"/><rect class="c" x="242" y="34" rx="2" ry="2"/><rect class="c" x="242" y="50" rx="2" ry="2"/><rect class="c" x="242" y="66" rx="2" ry="2"/><rect class="c" x="242" y="82" rx="2" ry="2"/><rect class="c" x="242" y="98" rx="2" ry="2"/><rect class="c" x="258" y="2" rx="2" ry="2"/><rect class="c" x="258" y="18" rx="2" ry="2"/><rect class="c" x="258" y="34" rx="2" ry="2"/><rect class="c" x="258" y="50" rx="2" ry="2"/><rect class="c" x="258" y="66" rx="2" ry="2"/><rect class="c" x="258" y="82" rx="2" ry="2"/><rect class="c" x="258" y="98" rx="2" ry="2"/><rect class="c" x="274" y="2" rx="2" ry="2"/><rect class="c" x="274" y="18" rx="2" ry="2"/><rect class="c" x="274" y="34" rx="2" ry="2"/><rect class="c" x="274" y="50" rx="2" ry="2"/><rect class="c" x="274" y="66" rx="2" ry="2"/><rect class="c cr" x="274" y="82" rx="2" ry="2"/><rect class="c cs" x="274" y="98" rx="2" ry="2"/><rect class="c" x="290" y="2" rx="2" ry="2"/><rect class="c ct" x="290" y="18" rx="2" ry="2"/><rect class="c" x="290" y="34" rx="2" ry="2"/><rect class="c" x="290" y="50" rx="2" ry="2"/><rect class="c" x="290" y="66" rx="2" ry="2"/><rect class="c" x="290" y="82" rx="2" ry="2"/><rect class="c" x="290" y="98" rx="2" ry="2"/><rect class="c" x="306" y="2" rx="2" ry="2"/><rect class="c" x="306" y="18" rx="2" ry="2"/><rect class="c" x="306" y="34" rx="2" ry="2"/><rect class="c" x="306" y="50" rx="2" ry="2"/><rect class="c" x="306" y="66" rx="2" ry="2"/><rect class="c" x="306" y="82" rx="2" ry="2"/><rect class="c" x="306" y="98" rx="2" ry="2"/><rect class="c" x="322" y="2" rx="2" ry="2"/><rect class="c" x="322" y="18" rx="2" ry="2"/><rect class="c" x="322" y="34" rx="2" ry="2"/><rect class="c" x="322" y="50" rx="2" ry="2"/><rect class="c" x="322" y="66" rx="2" ry="2"/><rect class="c cu" x="322" y="82" rx="2" ry="2"/><rect class="c cv" x="322" y="98" rx="2" ry="2"/><rect class="c cw" x="338" y="2" rx="2" ry="2"/><rect class="c" x="338" y="18" rx="2" ry="2"/><rect class="c" x="338" y="34" rx="2" ry="2"/><rect class="c" x="338" y="50" rx="2" ry="2"/><rect class="c" x="338" y="66" rx="2" ry="2"/><rect class="c" x="338" y="82" rx="2" ry="2"/><rect class="c" x="338" y="98" rx="2" ry="2"/><rect class="c" x="354" y="2" rx="2" ry="2"/><rect class="c" x="354" y="18" rx="2" ry="2"/><rect class="c cx" x="354" y="34" rx="2" ry="2"/><rect class="c" x="354" y="50" rx="2" ry="2"/><rect class="c" x="354" y="66" rx="2" ry="2"/><rect class="c cy" x="354" y="82" rx="2" ry="2"/><rect class="c" x="354" y="98" rx="2" ry="2"/><rect class="c" x="370" y="2" rx="2" ry="2"/><rect class="c" x="370" y="18" rx="2" ry="2"/><rect class="c" x="370" y="34" rx="2" ry="2"/><rect class="c" x="370" y="50" rx="2" ry="2"/><rect class="c cz" x="370" y="66" rx="2" ry="2"/><rect class="c" x="370" y="82" rx="2" ry="2"/><rect class="c" x="370" y="98" rx="2" ry="2"/><rect class="c" x="386" y="2" rx="2" ry="2"/><rect class="c" x="386" y="18" rx="2" ry="2"/><rect class="c" x="386" y="34" rx="2" ry="2"/><rect class="c" x="386" y="50" rx="2" ry="2"/><rect class="c c10" x="386" y="66" rx="2" ry="2"/><rect class="c c11" x="386" y="82" rx="2" ry="2"/><rect class="c" x="386" y="98" rx="2" ry="2"/><rect class="c c12" x="402" y="2" rx="2" ry="2"/><rect class="c" x="402" y="18" rx="2" ry="2"/><rect class="c c13" x="402" y="34" rx="2" ry="2"/><rect class="c" x="402" y="50" rx="2" ry="2"/><rect class="c" x="402" y="66" rx="2" ry="2"/><rect class="c" x="402" y="82" rx="2" ry="2"/><rect class="c" x="402" y="98" rx="2" ry="2"/><rect class="c" x="418" y="2" rx="2" ry="2"/><rect class="c" x="418" y="18" rx="2" ry="2"/><rect class="c" x="418" y="34" rx="2" ry="2"/><rect class="c" x="418" y="50" rx="2" ry="2"/><rect class="c" x="418" y="66" rx="2" ry="2"/><rect class="c" x="418" y="82" rx="2" ry="2"/><rect class="c c14" x="418" y="98" rx="2" ry="2"/><rect class="c" x="434" y="2" rx="2" ry="2"/><rect class="c" x="434" y="18" rx="2" ry="2"/><rect class="c" x="434" y="34" rx="2" ry="2"/><rect class="c" x="434" y="50" rx="2" ry="2"/><rect class="c" x="434" y="66" rx="2" ry="2"/><rect class="c" x="434" y="82" rx="2" ry="2"/><rect class="c" x="434" y="98" rx="2" ry="2"/><rect class="c" x="450" y="2" rx="2" ry="2"/><rect class="c c15" x="450" y="18" rx="2" ry="2"/><rect class="c" x="450" y="34" rx="2" ry="2"/><rect class="c c16" x="450" y="50" rx="2" ry="2"/><rect class="c" x="450" y="66" rx="2" ry="2"/><rect class="c c17" x="450" y="82" rx="2" ry="2"/><rect class="c" x="450" y="98" rx="2" ry="2"/><rect class="c" x="466" y="2" rx="2" ry="2"/><rect class="c c18" x="466" y="18" rx="2" ry="2"/><rect class="c" x="466" y="34" rx="2" ry="2"/><rect class="c c19" x="466" y="50" rx="2" ry="2"/><rect class="c" x="466" y="66" rx="2" ry="2"/><rect class="c" x="466" y="82" rx="2" ry="2"/><rect class="c" x="466" y="98" rx="2" ry="2"/><rect class="c" x="482" y="2" rx="2" ry="2"/><rect class="c" x="482" y="18" rx="2" ry="2"/><rect class="c c1a" x="482" y="34" rx="2" ry="2"/><rect class="c c1b" x="482" y="50" rx="2" ry="2"/><rect class="c" x="482" y="66" rx="2" ry="2"/><rect class="c c1c" x="482" y="82" rx="2" ry="2"/><rect class="c" x="482" y="98" rx="2" ry="2"/><rect class="c" x="498" y="2" rx="2" ry="2"/><rect class="c" x="498" y="18" rx="2" ry="2"/><rect class="c c1d" x="498" y="34" rx="2" ry="2"/><rect class="c c1e" x="498" y="50" rx="2" ry="2"/><rect class="c c1f" x="498" y="66" rx="2" ry="2"/><rect class="c" x="498" y="82" rx="2" ry="2"/><rect class="c" x="498" y="98" rx="2" ry="2"/><rect class="c" x="514" y="2" rx="2" ry="2"/><rect class="c" x="514" y="18" rx="2" ry="2"/><rect class="c" x="514" y="34" rx="2" ry="2"/><rect class="c c1g" x="514" y="50" rx="2" ry="2"/><rect class="c c1h" x="514" y="66" rx="2" ry="2"/><rect class="c" x="514" y="82" rx="2" ry="2"/><rect class="c" x="514" y="98" rx="2" ry="2"/><rect class="c" x="530" y="2" rx="2" ry="2"/><rect class="c" x="530" y="18" rx="2" ry="2"/><rect class="c" x="530" y="34" rx="2" ry="2"/><rect class="c" x="530" y="50" rx="2" ry="2"/><rect class="c" x="530" y="66" rx="2" ry="2"/><rect class="c" x="530" y="82" rx="2" ry="2"/><rect class="c" x="530" y="98" rx="2" ry="2"/><rect class="c" x="546" y="2" rx="2" ry="2"/><rect class="c" x="546" y="18" rx="2" ry="2"/><rect class="c c1i" x="546" y="34" rx="2" ry="2"/><rect class="c c1j" x="546" y="50" rx="2" ry="2"/><rect class="c" x="546" y="66" rx="2" ry="2"/><rect class="c" x="546" y="82" rx="2" ry="2"/><rect class="c c1k" x="546" y="98" rx="2" ry="2"/><rect class="c" x="562" y="2" rx="2" ry="2"/><rect class="c" x="562" y="18" rx="2" ry="2"/><rect class="c" x="562" y="34" rx="2" ry="2"/><rect class="c c1l" x="562" y="50" rx="2" ry="2"/><rect class="c c1m" x="562" y="66" rx="2" ry="2"/><rect class="c" x="562" y="82" rx="2" ry="2"/><rect class="c" x="562" y="98" rx="2" ry="2"/><rect class="c" x="578" y="2" rx="2" ry="2"/><rect class="c" x="578" y="18" rx="2" ry="2"/><rect class="c" x="578" y="34" rx="2" ry="2"/><rect class="c" x="578" y="50" rx="2" ry="2"/><rect class="c c1n" x="578" y="66" rx="2" ry="2"/><rect class="c c1o" x="578" y="82" rx="2" ry="2"/><rect class="c c1p" x="578" y="98" rx="2" ry="2"/><rect class="c c1q" x="594" y="2" rx="2" ry="2"/><rect class="c" x="594" y="18" rx="2" ry="2"/><rect class="c c1r" x="594" y="34" rx="2" ry="2"/><rect class="c c1s" x="594" y="50" rx="2" ry="2"/><rect class="c" x="594" y="66" rx="2" ry="2"/><rect class="c" x="594" y="82" rx="2" ry="2"/><rect class="c" x="594" y="98" rx="2" ry="2"/><rect class="c" x="610" y="2" rx="2" ry="2"/><rect class="c" x="610" y="18" rx="2" ry="2"/><rect class="c" x="610" y="34" rx="2" ry="2"/><rect class="c c1t" x="610" y="50" rx="2" ry="2"/><rect class="c" x="610" y="66" rx="2" ry="2"/><rect class="c" x="610" y="82" rx="2" ry="2"/><rect class="c" x="610" y="98" rx="2" ry="2"/><rect class="c" x="626" y="2" rx="2" ry="2"/><rect class="c" x="626" y="18" rx="2" ry="2"/><rect class="c" x="626" y="34" rx="2" ry="2"/><rect class="c" x="626" y="50" rx="2" ry="2"/><rect class="c" x="626" y="66" rx="2" ry="2"/><rect class="c" x="626" y="82" rx="2" ry="2"/><rect class="c" x="626" y="98" rx="2" ry="2"/><rect class="c" x="642" y="2" rx="2" ry="2"/><rect class="c" x="642" y="18" rx="2" ry="2"/><rect class="c" x="642" y="34" rx="2" ry="2"/><rect class="c" x="642" y="50" rx="2" ry="2"/><rect class="c" x="642" y="66" rx="2" ry="2"/><rect class="c" x="642" y="82" rx="2" ry="2"/><rect class="c" x="642" y="98" rx="2" ry="2"/><rect class="c" x="658" y="2" rx="2" ry="2"/><rect class="c" x="658" y="18" rx="2" ry="2"/><rect class="c" x="658" y="34" rx="2" ry="2"/><rect class="c" x="658" y="50" rx="2" ry="2"/><rect class="c" x="658" y="66" rx="2" ry="2"/><rect class="c" x="658" y="82" rx="2" ry="2"/><rect class="c" x="658" y="98" rx="2" ry="2"/><rect class="c" x="674" y="2" rx="2" ry="2"/><rect class="c c1u" x="674" y="18" rx="2" ry="2"/><rect class="c" x="674" y="34" rx="2" ry="2"/><rect class="c" x="674" y="50" rx="2" ry="2"/><rect class="c" x="674" y="66" rx="2" ry="2"/><rect class="c" x="674" y="82" rx="2" ry="2"/><rect class="c" x="674" y="98" rx="2" ry="2"/><rect class="c" x="690" y="2" rx="2" ry="2"/><rect class="c" x="690" y="18" rx="2" ry="2"/><rect class="c" x="690" y="34" rx="2" ry="2"/><rect class="c" x="690" y="50" rx="2" ry="2"/><rect class="c" x="690" y="66" rx="2" ry="2"/><rect class="c" x="690" y="82" rx="2" ry="2"/><rect class="c" x="690" y="98" rx="2" ry="2"/><rect class="c" x="706" y="2" rx="2" ry="2"/><rect class="c" x="706" y="18" rx="2" ry="2"/><rect class="c" x="706" y="34" rx="2" ry="2"/><rect class="c" x="706" y="50" rx="2" ry="2"/><rect class="c" x="706" y="66" rx="2" ry="2"/><rect class="c" x="706" y="82" rx="2" ry="2"/><rect class="c" x="706" y="98" rx="2" ry="2"/><rect class="c" x="722" y="2" rx="2" ry="2"/><rect class="c" x="722" y="18" rx="2" ry="2"/><rect class="c c1v" x="722" y="34" rx="2" ry="2"/><rect class="c" x="722" y="50" rx="2" ry="2"/><rect class="c" x="722" y="66" rx="2" ry="2"/><rect class="c" x="722" y="82" rx="2" ry="2"/><rect class="c c1w" x="722" y="98" rx="2" ry="2"/><rect class="c" x="738" y="2" rx="2" ry="2"/><rect class="c" x="738" y="18" rx="2" ry="2"/><rect class="c" x="738" y="34" rx="2" ry="2"/><rect class="c" x="738" y="50" rx="2" ry="2"/><rect class="c" x="738" y="66" rx="2" ry="2"/><rect class="c" x="738" y="82" rx="2" ry="2"/><rect class="c" x="738" y="98" rx="2" ry="2"/><rect class="c" x="754" y="2" rx="2" ry="2"/><rect class="c" x="754" y="18" rx="2" ry="2"/><rect class="c" x="754" y="34" rx="2" ry="2"/><rect class="c" x="754" y="50" rx="2" ry="2"/><rect class="c c1x" x="754" y="66" rx="2" ry="2"/><rect class="c" x="754" y="82" rx="2" ry="2"/><rect class="c c1y" x="754" y="98" rx="2" ry="2"/><rect class="c" x="770" y="2" rx="2" ry="2"/><rect class="c" x="770" y="18" rx="2" ry="2"/><rect class="c c1z" x="770" y="34" rx="2" ry="2"/><rect class="c c20" x="770" y="50" rx="2" ry="2"/><rect class="c" x="770" y="66" rx="2" ry="2"/><rect class="c" x="770" y="82" rx="2" ry="2"/><rect class="c" x="770" y="98" rx="2" ry="2"/><rect class="c" x="786" y="2" rx="2" ry="2"/><rect class="c c21" x="786" y="18" rx="2" ry="2"/><rect class="c" x="786" y="34" rx="2" ry="2"/><rect class="c" x="786" y="50" rx="2" ry="2"/><rect class="c c22" x="786" y="66" rx="2" ry="2"/><rect class="c" x="786" y="82" rx="2" ry="2"/><rect class="c" x="786" y="98" rx="2" ry="2"/><rect class="c" x="802" y="2" rx="2" ry="2"/><rect class="c c23" x="802" y="18" rx="2" ry="2"/><rect class="c c24" x="802" y="34" rx="2" ry="2"/><rect class="c" x="802" y="50" rx="2" ry="2"/><rect class="c" x="802" y="66" rx="2" ry="2"/><rect class="c c25" x="802" y="82" rx="2" ry="2"/><rect class="c c26" x="802" y="98" rx="2" ry="2"/><rect class="c c27" x="818" y="2" rx="2" ry="2"/><rect class="c c28" x="818" y="18" rx="2" ry="2"/><rect class="c c29" x="818" y="34" rx="2" ry="2"/><rect class="c c2a" x="818" y="50" rx="2" ry="2"/><rect class="c" x="818" y="66" rx="2" ry="2"/><rect class="c c2b" x="818" y="82" rx="2" ry="2"/><rect class="c c2c" x="818" y="98" rx="2" ry="2"/><rect class="c c2d" x="834" y="2" rx="2" ry="2"/><rect class="u u0" height="12" width="681.0" x="0.0" y="144"/><rect class="u u1" height="12" width="109.1" x="680.4" y="144"/><rect class="u u2" height="12" width="10.5" x="788.8" y="144"/><rect class="u u3" height="12" width="49.9" x="798.7" y="144"/><rect class="s s0" x="0.8" y="0.8" width="14.4" height="14.4" rx="4.5" ry="4.5"/><rect class="s s1" x="1.8" y="1.8" width="12.3" height="12.3" rx="4.1" ry="4.1"/><rect class="s s2" x="2.6" y="2.6" width="10.8" height="10.8" rx="3.6" ry="3.6"/><rect class="s s3" x="3.0" y="3.0" width="9.9" height="9.9" rx="3.3" ry="3.3"/></svg>